<svg width="512" height="512" viewBox="0 0 512 512" fill="none" xmlns="http://www.w3.org/2000/svg">
<g clip-path="url(#clip0_1044_18)">
<path d="M55.2227 35H333.548C401.235 35 456.107 89.8711 456.107 157.558V390.023C456.107 438.059 417.166 477 369.13 477H193.595C117.174 477 55.2227 415.049 55.2227 338.628V35Z" fill="white"/>
<path d="M87.9419 62.3031C95.4954 62.3031 102.715 62.3031 109.905 62.3031C121.625 62.1582 133.331 63.1743 144.851 65.3368C155.411 67.2135 165.379 71.5581 173.942 78.0168C179.589 82.4824 184.148 88.1721 187.274 94.6568C190.401 101.141 192.014 108.251 191.992 115.451C192.422 123.867 191.291 132.29 188.655 140.295C184.471 151.448 177.253 161.209 167.815 168.476C155.614 178.275 141.768 185.825 126.923 190.773C124.738 191.501 124.405 192.866 125.982 194.717C137.146 207.488 148.248 220.259 159.351 232.999C178.28 254.538 197.24 276.046 216.23 297.522C227.666 310.446 239.254 323.217 250.751 336.049C251.135 336.567 251.48 337.115 251.783 337.687L280.176 314.299C279.448 313.448 278.841 312.659 278.144 311.931C258.851 291.729 239.345 271.706 220.325 251.261C204.884 234.638 189.99 217.468 174.822 200.602C173.396 199.024 174.094 198.387 175.52 197.568C190.147 188.166 203.2 176.516 214.197 163.046C224.071 150.812 229.627 135.658 230.002 119.94C231.003 101.466 227.181 84.357 215.714 69.432C206.261 57.0235 193.386 47.6496 178.675 42.4639C170.727 39.6124 162.567 37.3676 154.406 35.1835H157.44C219.779 35.1835 282.087 34.6678 344.518 35.3655C390.779 35.8509 424.541 57.8136 445.443 99.0694C452.593 113.531 456.24 129.472 456.091 145.604C456.091 153.43 456.091 161.257 456.091 169.053V171.116H436.22C423.48 171.116 410.709 170.388 397.998 170.903C379.543 171.28 361.305 174.968 344.154 181.794C326.129 188.939 311.023 201.929 301.259 218.681C288.882 240.189 288.306 277.471 315.457 301.405C326.498 310.685 338.741 318.431 351.857 324.43C364.477 330.497 377.37 336.201 390.021 342.327C399.792 346.686 408.788 352.609 416.654 359.861C431.821 374.846 433.277 394.686 420.325 411.705C415.463 417.462 409.554 422.249 402.912 425.811C385.778 436.487 365.98 442.122 345.792 442.07C296.255 442.07 246.686 442.252 197.149 442.07C175.057 441.732 153.57 434.8 135.446 422.161C117.323 409.525 103.389 391.76 95.4346 371.147C90.4417 358.114 87.9015 344.27 87.9419 330.315C87.9419 242.08 87.9419 153.835 87.9419 65.5793V62.3031Z" fill="#12B878"/>
<path d="M87.9419 62.3031C95.4954 62.3031 102.715 62.3031 109.905 62.3031C121.625 62.1582 133.331 63.1743 144.851 65.3368C155.411 67.2135 165.379 71.5581 173.942 78.0168C179.589 82.4824 184.148 88.1721 187.274 94.6568C190.401 101.141 192.014 108.251 191.992 115.451C192.422 123.867 191.291 132.29 188.655 140.295C184.471 151.448 177.253 161.209 167.815 168.476C155.614 178.275 141.768 185.825 126.923 190.773C124.738 191.501 124.405 192.866 125.982 194.717C137.146 207.488 148.248 220.259 159.351 232.999C178.28 254.538 197.24 276.046 216.23 297.522C227.666 310.446 239.254 323.217 250.751 336.049C251.135 336.567 251.48 337.115 251.783 337.687L280.176 314.299C279.448 313.448 278.841 312.659 278.144 311.931C258.851 291.729 239.345 271.706 220.325 251.261C204.884 234.638 189.99 217.468 174.822 200.602C173.396 199.024 174.094 198.387 175.52 197.568C190.147 188.166 203.2 176.516 214.197 163.046C224.071 150.812 229.627 135.658 230.002 119.94C231.003 101.466 227.181 84.357 215.714 69.432C206.261 57.0235 193.386 47.6496 178.675 42.4639C170.727 39.6124 162.567 37.3676 154.406 35.1835H157.44C219.779 35.1835 282.087 34.6678 344.518 35.3655C390.779 35.8509 424.541 57.8136 445.443 99.0694C452.593 113.531 456.24 129.472 456.091 145.604C456.091 153.43 456.091 161.257 456.091 169.053V171.116H436.22C423.48 171.116 410.709 170.388 397.998 170.903C379.543 171.28 361.305 174.968 344.154 181.794C326.129 188.939 311.023 201.929 301.259 218.681C288.882 240.189 288.306 277.471 315.457 301.405C326.498 310.685 338.741 318.431 351.857 324.43C364.477 330.497 377.37 336.201 390.021 342.327C399.792 346.686 408.788 352.609 416.654 359.861C431.821 374.846 433.277 394.686 420.325 411.705C415.463 417.462 409.554 422.249 402.912 425.811C385.778 436.487 365.98 442.122 345.792 442.07C296.255 442.07 246.686 442.252 197.149 442.07C175.057 441.732 153.57 434.8 135.446 422.161C117.323 409.525 103.389 391.76 95.4346 371.147C90.4417 358.114 87.9015 344.27 87.9419 330.315C87.9419 242.08 87.9419 153.835 87.9419 65.5793V62.3031Z" fill="#12B878"/>
<path d="M455.817 203.425V342.967C454.117 341.117 452.782 339.661 451.418 338.143C444.916 330.97 437.355 324.834 428.999 319.943C413.806 311.214 398.184 303.256 382.192 296.099C373.092 291.762 364.446 286.755 355.83 281.598C349.004 277.625 343.183 272.134 338.812 265.551C334.681 258.978 332.827 251.228 333.541 243.497C334.253 235.766 337.491 228.485 342.757 222.779C351.857 212.677 363.779 207.914 376.671 204.881C391.613 201.682 406.939 200.661 422.173 201.847C429.758 202.242 437.343 202.515 444.895 202.909C448.414 202.818 451.964 203.152 455.817 203.425Z" fill="#EA6862"/>
<path d="M352.526 312.533C442.269 322.418 464.804 410.582 387.711 443.791" stroke="white" stroke-width="7.96172"/>
</g>
<defs>
<clipPath id="clip0_1044_18">
<rect width="442" height="442" fill="white" transform="translate(35 35)"/>
</clipPath>
</defs>
</svg>
